<?xml version="1.0" encoding="utf-8"?>
<!-- Generator: Adobe Illustrator 22.1.0, SVG Export Plug-In . SVG Version: 6.00 Build 0)  -->
<svg version="1.1" id="图层_1" xmlns="http://www.w3.org/2000/svg" xmlns:xlink="http://www.w3.org/1999/xlink" x="0px" y="0px"
	 viewBox="0 0 34.6 38.1" style="enable-background:new 0 0 34.6 38.1;" xml:space="preserve">
<style type="text/css">
	.st0{fill:url(#SVGID_1_);}
</style>
<linearGradient id="SVGID_1_" gradientUnits="userSpaceOnUse" x1="17.3205" y1="3.0718" x2="17.3205" y2="37.7128">
	<stop  offset="0" style="stop-color:#FEB16D"/>
	<stop  offset="1" style="stop-color:#F88D72"/>
</linearGradient>
<path class="st0" d="M31.6,7.3L20.3,0.8c-1.9-1.1-4.1-1.1-6,0L3,7.3c-1.9,1.1-3,3.1-3,5.2v13.1c0,2.1,1.1,4.1,3,5.2l11.3,6.5
	c1.9,1.1,4.1,1.1,6,0l11.3-6.5c1.9-1.1,3-3.1,3-5.2V12.5C34.6,10.4,33.5,8.4,31.6,7.3z M11.9,26.6c0,0,0,0.4-0.5,0.4H8.7
	c0,0-0.7,0-0.7-0.6L7.3,15.7c0,0-0.1-0.8,0.5-0.8h3.3l0,0c0.4,0.1,0.7,0.5,0.7,0.9V26.6z M25.3,25.1c0,0-0.7,2-1.4,2h-8.2
	c-0.6,0-1.9-0.4-1.9-1.5V15c0,0,4-2.9,4-6.6c0.1-0.2-0.2-1.4,1.4-1.4c0,0,3.6,0.2,1.5,7.9H26l0,0c0.4,0,0.7,0.1,1,0.3
	s0.4,0.6,0.4,0.9C27.3,16.2,27.3,18.3,25.3,25.1z"/>
</svg>
