<?xml version="1.0" encoding="utf-8"?>
<!-- Generator: Adobe Illustrator 22.1.0, SVG Export Plug-In . SVG Version: 6.00 Build 0)  -->
<svg version="1.1" id="图层_1" xmlns="http://www.w3.org/2000/svg" xmlns:xlink="http://www.w3.org/1999/xlink" x="0px" y="0px"
	 viewBox="0 0 90 90" style="enable-background:new 0 0 90 90;" xml:space="preserve">
<style type="text/css">
	.st0{fill:url(#SVGID_1_);}
</style>
<linearGradient id="SVGID_1_" gradientUnits="userSpaceOnUse" x1="45" y1="3" x2="45" y2="93">
	<stop  offset="0" style="stop-color:#FA9180"/>
	<stop  offset="1" style="stop-color:#FC6AA4"/>
</linearGradient>
<path class="st0" d="M59.2,33.5c0,1.3-0.7,2.4-1.8,2.9l0,0C56.4,43,51,47.9,44.8,47.9c-6.2,0-11.6-4.9-12.6-11.5
	c-1.1-0.5-1.8-1.6-1.8-2.9c0-1.7,1.3-3.1,2.9-3.1c1.6,0,2.9,1.4,2.9,3.1c0,0.4-0.1,0.9-0.3,1.3c-0.1,0.4-0.3,0.8-0.6,1.2
	c0.9,5,4.8,8.6,9.5,8.6c4.7,0,8.6-3.6,9.5-8.6c-0.3-0.3-0.5-0.7-0.6-1.1c-0.2-0.4-0.3-0.9-0.3-1.4c0-1.7,1.3-3.1,2.9-3.1
	C57.9,30.3,59.2,31.7,59.2,33.5z M90,45c0,24.9-20.1,45-45,45C20.1,90,0,69.9,0,45C0,20.1,20.1,0,45,0C69.9,0,90,20.1,90,45z
	 M64.6,27.6c0-2.4-1.8-4.4-4.1-4.4H29.1c-2.2,0-4.1,2-4.1,4.4v33.2c0,2.4,1.8,4.4,4.1,4.4h31.5c2.2,0,4.1-2,4.1-4.4V27.6z"/>
</svg>
