<?xml version="1.0" encoding="utf-8"?>
<!-- Generator: Adobe Illustrator 22.1.0, SVG Export Plug-In . SVG Version: 6.00 Build 0)  -->
<svg version="1.1" id="图层_1" xmlns="http://www.w3.org/2000/svg" xmlns:xlink="http://www.w3.org/1999/xlink" x="0px" y="0px"
	 viewBox="0 0 68 54" style="enable-background:new 0 0 68 54;" xml:space="preserve">
<style type="text/css">
	.st0{fill:url(#SVGID_1_);}
</style>
<linearGradient id="SVGID_1_" gradientUnits="userSpaceOnUse" x1="34" y1="4.3333" x2="34" y2="51.7687">
	<stop  offset="0" style="stop-color:#FA9180"/>
	<stop  offset="1" style="stop-color:#FC6AA4"/>
</linearGradient>
<path class="st0" d="M42.2,21.7L39.9,24c-0.2,0.2-0.3,0.5-0.3,0.8l0.6,3.3l0.3,1.9c0.1,0.8-0.7,1.4-1.4,1L37.4,30l-3-1.5
	c-0.3-0.1-0.6-0.1-0.9,0L30.6,30l-1.7,0.9c-0.7,0.4-1.5-0.2-1.4-1l0.3-1.9l0.6-3.3c0.1-0.3,0-0.6-0.3-0.8l-2.4-2.3l-1.4-1.3
	c-0.6-0.5-0.3-1.5,0.5-1.6l1.9-0.3l3.3-0.5c0.3,0,0.6-0.2,0.7-0.5l1.5-3l0.9-1.7c0.4-0.7,1.4-0.7,1.7,0l0.9,1.7l1.5,3
	c0.1,0.3,0.4,0.5,0.7,0.5l3.3,0.5l1.9,0.3c0.8,0.1,1.1,1.1,0.5,1.6L42.2,21.7z M52.1,3.1H17.2c-2.3,0-4.2,1.9-4.2,4.2v40.9
	c0,2.2,2.4,3.5,4.3,2.4l16-9.7c0.4-0.3,0.9-0.3,1.3,0l16,9.7c1.9,1.1,4.3-0.2,4.3-2.4V6C55,4.4,53.7,3.1,52.1,3.1z"/>
</svg>
