<?xml version="1.0" encoding="utf-8"?>
<!-- Generator: Adobe Illustrator 22.1.0, SVG Export Plug-In . SVG Version: 6.00 Build 0)  -->
<svg version="1.1" id="图层_1" xmlns="http://www.w3.org/2000/svg" xmlns:xlink="http://www.w3.org/1999/xlink" x="0px" y="0px"
	 viewBox="0 0 68 54" style="enable-background:new 0 0 68 54;" xml:space="preserve">
<style type="text/css">
	.st0{fill:url(#SVGID_1_);}
</style>
<linearGradient id="SVGID_1_" gradientUnits="userSpaceOnUse" x1="34" y1="3.6667" x2="34" y2="50.866">
	<stop  offset="0" style="stop-color:#779AFA"/>
	<stop  offset="1" style="stop-color:#65B4FD"/>
</linearGradient>
<path class="st0" d="M30.2,35.2L30.2,35.2c0-6.8,3.7-12.8,9.2-16H12.1l3.5-9.4c0.4-1.3,1.1-2.3,2.7-2.3h24.8c1.5,0,2.2,1,2.7,2.3
	l2.6,7c0,0,0,0,0,0c1.7,0,3.4,0.3,5,0.7L49.5,7.3C48.6,5,46.7,3,43,3H18.3c-3.6,0-5.5,2-6.4,4.3L7.2,19.5C5.3,19.7,2,21.9,2,26.1
	v15.5h5.3v3.9c0,6.1,7.2,6,7.2,0v-3.9h16.9C30.7,39.6,30.2,37.5,30.2,35.2L30.2,35.2z M13.5,32.2c-2.2,0-4.1-1.9-4.1-4.2
	c0-2.3,1.8-4.2,4.1-4.2c2.2,0,4.1,1.9,4.1,4.2C17.6,30.4,15.8,32.2,13.5,32.2z M65.3,47.2l-3.8-3.4c1.6-2.5,2.5-5.4,2.5-8.6
	c0-8.7-7-15.8-15.6-15.8c-8.6,0-15.6,7.1-15.6,15.8c0,8.7,7,15.8,15.6,15.8c4,0,7.6-1.6,10.4-4.1l4,3.6c0.4,0.3,0.8,0.5,1.2,0.5
	c0.6,0,1.1-0.3,1.5-0.8C66.2,49.3,66.1,47.9,65.3,47.2z M48.4,47.3c-6.6,0-11.9-5.4-11.9-12.1c0-6.7,5.3-12.1,11.9-12.1
	c6.6,0,11.9,5.4,11.9,12.1C60.3,41.9,55,47.3,48.4,47.3z"/>
</svg>
