<?xml version="1.0" encoding="utf-8"?>
<!-- Generator: Adobe Illustrator 22.1.0, SVG Export Plug-In . SVG Version: 6.00 Build 0)  -->
<svg version="1.1" id="图层_1" xmlns="http://www.w3.org/2000/svg" xmlns:xlink="http://www.w3.org/1999/xlink" x="0px" y="0px"
	 viewBox="0 0 68 54" style="enable-background:new 0 0 68 54;" xml:space="preserve">
<style type="text/css">
	.st0{fill:url(#SVGID_1_);}
</style>
<linearGradient id="SVGID_1_" gradientUnits="userSpaceOnUse" x1="34" y1="0.3333" x2="34" y2="58.3333">
	<stop  offset="0" style="stop-color:#FA9180"/>
	<stop  offset="1" style="stop-color:#FC6AA4"/>
</linearGradient>
<path class="st0" d="M42,27.8H25.8l0.7-2.9c0.4-1.3,1.6-2.5,3.3-2.5h7.8c1.7,0,2.6,0.6,3.3,2.3L42,27.8z M26.1,32
	c-0.9,0.2-1.5,0.9-1.7,1.8c-0.3,1.6,1,3,2.6,2.7c0.9-0.2,1.5-0.9,1.7-1.8C28.9,33.1,27.6,31.7,26.1,32z M41.9,32
	c-0.9,0.2-1.5,0.9-1.7,1.8c-0.3,1.6,1,3,2.6,2.7c0.9-0.2,1.5-0.9,1.7-1.8C44.7,33.1,43.4,31.7,41.9,32z M62.6,29.1
	c-0.8,0.9-2,1.3-2.8,0.7L55,25.4v26.5c0,1.3-0.8,2.2-2,2.2H14.9c-1.2,0-2-0.9-2-2.2V25.2l-4.8,4.6c-0.8,0.4-2,0.2-2.6-0.9
	c-0.8-1.1-0.6-2.4,0.2-3L32.1,0.9c0.8-0.9,1.8-1.1,2.6-0.7c0.2,0,0.4,0.2,0.6,0.4l26.8,25.2C63.2,26.5,63.2,27.8,62.6,29.1z
	 M48,32.5c0-2.3-1.5-4.2-3.4-4.6L42.7,23c-0.9-2.2-2.1-3-4.2-3h-9.9c-2.2,0-3.8,1.5-4.2,3.1l-1.1,4.8c-1.8,0.4-3.2,2.3-3.2,4.5V41
	c0,0.5,0.4,0.9,0.8,0.9h2.7v2.3c0,1,0.8,1.9,1.8,1.9c1,0,1.8-0.8,1.8-1.9v-2.3h13.8v2.3c0,1,0.8,1.9,1.8,1.9s1.8-0.8,1.8-1.9v-2.3
	h2.7c0.5,0,0.9-0.4,0.9-0.9V32.5z"/>
</svg>
