<?xml version="1.0" encoding="utf-8"?>
<!-- Generator: Adobe Illustrator 22.1.0, SVG Export Plug-In . SVG Version: 6.00 Build 0)  -->
<svg version="1.1" id="图层_1" xmlns="http://www.w3.org/2000/svg" xmlns:xlink="http://www.w3.org/1999/xlink" x="0px" y="0px"
	 viewBox="0 0 90 90" style="enable-background:new 0 0 90 90;" xml:space="preserve">
<style type="text/css">
	.st0{fill:url(#SVGID_1_);}
</style>
<linearGradient id="SVGID_1_" gradientUnits="userSpaceOnUse" x1="45" y1="89" x2="45" y2="-1">
	<stop  offset="0" style="stop-color:#FA9180"/>
	<stop  offset="1" style="stop-color:#FC6AA4"/>
</linearGradient>
<path class="st0" d="M33.4,48.7c0,1-0.8,1.8-1.7,1.8h-5.4c-1,0-1.7-0.8-1.7-1.8c0-1,0.8-1.8,1.7-1.8h5.4
	C32.6,46.9,33.4,47.7,33.4,48.7z M59.4,39c1.1,0,2.2,0.2,3.1,0.6l-2.9-6.1c-1.5-4.5-2.9-6-5.5-6H34.6c-2.6,0-3.9,1.4-5.5,6.1l-3,6
	C27,39.2,28,39,29,39H59.4z M50.6,47.9H38.1c-0.6,0-1.1,0.5-1.1,1.1c0,0.6,0.5,1.1,1.1,1.1h12.5c0.6,0,1.1-0.5,1.1-1.1
	C51.7,48.4,51.2,47.9,50.6,47.9z M61.9,46.9h-5.4c-1,0-1.7,0.8-1.7,1.8c0,1,0.8,1.8,1.7,1.8h5.4c1,0,1.7-0.8,1.7-1.8
	C63.6,47.7,62.8,46.9,61.9,46.9z M90,45c0,24.9-20.1,45-45,45C20.1,90,0,69.9,0,45C0,20.1,20.1,0,45,0C69.9,0,90,20.1,90,45z
	 M67.3,46.1L67.3,46.1c0-0.9-0.2-1.8-0.6-2.6c0-0.2-0.1-0.4-0.1-0.6l-4-10.2l0-0.1c-1.4-4.3-3.4-8.3-8.5-8.3H34.6
	c-5.2,0-7,4.1-8.5,8.3L22,42.8c-0.6,1-1,2.1-1,3.4v3.2c0,0.5,0.1,1,0.2,1.4C21.1,51,21,51.3,21,51.6v9.5c0,1.4,1.1,2.5,2.5,2.5h5.1
	c1.4,0,2.4-1.1,2.4-2.5v-4.7h26.6v4.7c0,1.4,1.1,2.5,2.5,2.5h4.8c1.4,0,2.5-1.1,2.5-2.5v-9.5c0-0.3-0.1-0.6-0.2-0.9
	c0.1-0.5,0.2-0.9,0.2-1.4V46.1z"/>
</svg>
