<?xml version="1.0" encoding="utf-8"?>
<!-- Generator: Adobe Illustrator 22.1.0, SVG Export Plug-In . SVG Version: 6.00 Build 0)  -->
<svg version="1.1" id="图层_1" xmlns="http://www.w3.org/2000/svg" xmlns:xlink="http://www.w3.org/1999/xlink" x="0px" y="0px"
	 viewBox="0 0 40 40" style="enable-background:new 0 0 40 40;" xml:space="preserve">
<style type="text/css">
	.st0{fill:url(#SVGID_1_);}
</style>
<linearGradient id="SVGID_1_" gradientUnits="userSpaceOnUse" x1="20" y1="39.75" x2="20" y2="-0.25">
	<stop  offset="0" style="stop-color:#779AFA"/>
	<stop  offset="1" style="stop-color:#65B4FD"/>
</linearGradient>
<path class="st0" d="M30.5,0C25.2,0,21,4.3,21,9.5c0,5.3,4.3,9.5,9.5,9.5c5.3,0,9.5-4.3,9.5-9.5C40,4.3,35.7,0,30.5,0L30.5,0z
	 M9.5,0C4.3,0,0,4.3,0,9.5C0,14.8,4.3,19,9.5,19c5.3,0,9.5-4.3,9.5-9.5C19,4.3,14.8,0,9.5,0L9.5,0z M30.5,21c-5.3,0-9.5,4.3-9.5,9.5
	c0,5.3,4.3,9.5,9.5,9.5c5.3,0,9.5-4.3,9.5-9.5C40,25.2,35.7,21,30.5,21L30.5,21z M9.5,21C4.3,21,0,25.2,0,30.5C0,35.7,4.3,40,9.5,40
	c5.3,0,9.5-4.3,9.5-9.5C19,25.2,14.8,21,9.5,21L9.5,21z"/>
</svg>
