<?xml version="1.0" encoding="utf-8"?>
<!-- Generator: Adobe Illustrator 22.1.0, SVG Export Plug-In . SVG Version: 6.00 Build 0)  -->
<svg version="1.1" id="图层_1" xmlns="http://www.w3.org/2000/svg" xmlns:xlink="http://www.w3.org/1999/xlink" x="0px" y="0px"
	 viewBox="0 0 40 40" style="enable-background:new 0 0 40 40;" xml:space="preserve">
<style type="text/css">
	.st0{fill:#282828;}
</style>
<path class="st0" d="M30.5,3C34.1,3,37,5.9,37,9.5c0,3.6-2.9,6.5-6.5,6.5c-3.6,0-6.5-2.9-6.5-6.5C24,5.9,26.9,3,30.5,3 M9.5,3
	C13.1,3,16,5.9,16,9.5c0,3.6-2.9,6.5-6.5,6.5C5.9,16,3,13.1,3,9.5C3,5.9,5.9,3,9.5,3 M30.5,24c3.6,0,6.5,2.9,6.5,6.5
	c0,3.6-2.9,6.5-6.5,6.5c-3.6,0-6.5-2.9-6.5-6.5C24,26.9,26.9,24,30.5,24 M9.5,24c3.6,0,6.5,2.9,6.5,6.5c0,3.6-2.9,6.5-6.5,6.5
	C5.9,37,3,34.1,3,30.5C3,26.9,5.9,24,9.5,24 M30.5,0C25.2,0,21,4.3,21,9.5c0,5.3,4.3,9.5,9.5,9.5c5.3,0,9.5-4.3,9.5-9.5
	C40,4.3,35.7,0,30.5,0L30.5,0z M9.5,0C4.3,0,0,4.3,0,9.5C0,14.8,4.3,19,9.5,19c5.3,0,9.5-4.3,9.5-9.5C19,4.3,14.8,0,9.5,0L9.5,0z
	 M30.5,21c-5.3,0-9.5,4.3-9.5,9.5c0,5.3,4.3,9.5,9.5,9.5c5.3,0,9.5-4.3,9.5-9.5C40,25.2,35.7,21,30.5,21L30.5,21z M9.5,21
	C4.3,21,0,25.2,0,30.5C0,35.7,4.3,40,9.5,40c5.3,0,9.5-4.3,9.5-9.5C19,25.2,14.8,21,9.5,21L9.5,21z"/>
</svg>
