<?xml version="1.0" encoding="utf-8"?>
<!-- Generator: Adobe Illustrator 22.1.0, SVG Export Plug-In . SVG Version: 6.00 Build 0)  -->
<svg version="1.1" id="图层_1" xmlns="http://www.w3.org/2000/svg" xmlns:xlink="http://www.w3.org/1999/xlink" x="0px" y="0px"
	 viewBox="0 0 38 36.9" style="enable-background:new 0 0 38 36.9;" xml:space="preserve">
<style type="text/css">
	.st0{fill:url(#SVGID_1_);}
</style>
<linearGradient id="SVGID_1_" gradientUnits="userSpaceOnUse" x1="19" y1="35.43" x2="19" y2="2.108663e-02">
	<stop  offset="0" style="stop-color:#779AFA"/>
	<stop  offset="1" style="stop-color:#65B4FD"/>
</linearGradient>
<path class="st0" d="M7.5,36.4c0.5,0.3,1,0.5,1.6,0.5c0.5,0,0.9-0.1,1.3-0.3l8.6-4.6l8.6,4.6c0.4,0.2,0.9,0.3,1.3,0.3
	c0.6,0,1.1-0.2,1.6-0.5c0.9-0.6,1.3-1.6,1.1-2.6l-1.7-10l7.2-7.2c0.7-0.7,1-1.8,0.6-2.7c-0.3-1-1.2-1.6-2.2-1.8l-9.9-1.5l-4.3-8.9
	C21,0.6,20.1,0,19,0c-1.1,0-2,0.6-2.5,1.5l-4.3,8.9l-9.9,1.5c-1,0.2-1.9,0.8-2.2,1.8c-0.3,1-0.1,2,0.6,2.7L8,23.7l-1.7,10
	C6.2,34.8,6.6,35.8,7.5,36.4z"/>
</svg>
