<?xml version="1.0" encoding="utf-8"?>
<!-- Generator: Adobe Illustrator 22.1.0, SVG Export Plug-In . SVG Version: 6.00 Build 0)  -->
<svg version="1.1" id="图层_1" xmlns="http://www.w3.org/2000/svg" xmlns:xlink="http://www.w3.org/1999/xlink" x="0px" y="0px"
	 viewBox="0 0 38 36.9" style="enable-background:new 0 0 38 36.9;" xml:space="preserve">
<style type="text/css">
	.st0{fill:#282828;}
</style>
<path class="st0" d="M2.3,14.6l9.9-1.5l1.7-0.3l0.8-1.6l4.3-9l4.3,9l0.8,1.6l1.7,0.3l9.9,1.5l-7.2,7.2L27.3,23l0.3,1.7l1.7,10
	L20.6,30L19,29.2L17.4,30l-8.7,4.7l1.7-10l0.3-1.7l-1.2-1.2L2.3,14.6z M7.5,36.4c0.5,0.3,1,0.5,1.6,0.5c0.5,0,0.9-0.1,1.3-0.3
	l8.6-4.6l8.6,4.6c0.4,0.2,0.9,0.3,1.3,0.3c0.6,0,1.1-0.2,1.6-0.5c0.9-0.6,1.3-1.6,1.1-2.6l-1.7-10l7.2-7.2c0.7-0.7,1-1.8,0.6-2.7
	c-0.3-1-1.2-1.6-2.2-1.8l-9.9-1.5l-4.3-8.9C21,0.6,20.1,0,19,0c-1.1,0-2,0.6-2.5,1.5l-4.3,8.9l-9.9,1.5c-1,0.2-1.9,0.8-2.2,1.8
	c-0.3,1-0.1,2,0.6,2.7L8,23.7l-1.7,10C6.2,34.8,6.6,35.8,7.5,36.4z"/>
</svg>
