<?xml version="1.0" encoding="utf-8"?>
<!-- Generator: Adobe Illustrator 22.1.0, SVG Export Plug-In . SVG Version: 6.00 Build 0)  -->
<svg version="1.1" id="图层_1" xmlns="http://www.w3.org/2000/svg" xmlns:xlink="http://www.w3.org/1999/xlink" x="0px" y="0px"
	 viewBox="0 0 72 54" style="enable-background:new 0 0 72 54;" xml:space="preserve">
<style type="text/css">
	.st0{fill:url(#SVGID_1_);}
</style>
<linearGradient id="SVGID_1_" gradientUnits="userSpaceOnUse" x1="36" y1="474.0046" x2="36" y2="528.0046" gradientTransform="matrix(1 0 0 1 0 -474.003)">
	<stop  offset="0" style="stop-color:#779AFA"/>
	<stop  offset="1" style="stop-color:#65B4FD"/>
</linearGradient>
<path class="st0" d="M66,49.4L59.5,3.6c-0.3-2-2-3.6-4.2-3.6H16.7c-2,0-3.8,1.5-4.2,3.6L6,49.4C5.7,51.8,7.7,54,10.2,54h51.6
	C64.3,54.1,66.3,51.9,66,49.4z M20,9.2c0-0.9,0.8-1.7,1.7-1.7h28.7c0.9,0,1.7,0.8,1.7,1.7v0.3c0,0.9-0.8,1.7-1.7,1.7H21.7
	c-0.9,0-1.7-0.8-1.7-1.7C20,9.5,20,9.2,20,9.2z M50.5,25c-0.8,5.9-7.3,10.9-14.5,10.9S22.3,31,21.5,25.1c-1.1-0.7-1.9-1.8-1.9-3.2
	c0-2,1.6-3.7,3.7-3.7s3.7,1.6,3.7,3.7c0,1.3-0.7,2.4-1.7,3.1c0.8,3.7,5.1,7.2,10.8,7.2s10.2-3.7,10.8-7.2c-1-0.7-1.7-1.8-1.7-3.1
	c0-2,1.6-3.7,3.7-3.7c2,0,3.7,1.6,3.7,3.7C52.4,23.2,51.7,24.4,50.5,25z"/>
</svg>
