<?xml version="1.0" encoding="utf-8"?>
<!-- Generator: Adobe Illustrator 22.1.0, SVG Export Plug-In . SVG Version: 6.00 Build 0)  -->
<svg version="1.1" id="图层_1" xmlns="http://www.w3.org/2000/svg" xmlns:xlink="http://www.w3.org/1999/xlink" x="0px" y="0px"
	 viewBox="0 0 72 54" style="enable-background:new 0 0 72 54;" xml:space="preserve">
<style type="text/css">
	.st0{fill:url(#SVGID_1_);}
</style>
<linearGradient id="SVGID_1_" gradientUnits="userSpaceOnUse" x1="35.9907" y1="23.011" x2="35.9907" y2="-29.3176" gradientTransform="matrix(1 0 0 -1 0 24)">
	<stop  offset="0" style="stop-color:#FA9180"/>
	<stop  offset="1" style="stop-color:#FC6AA4"/>
</linearGradient>
<path class="st0" d="M25.7,23.5c-2,0-3-1.3-3-3.8c0-2.6,1-3.9,3-3.8c2,0,3,1.3,3,3.8C28.7,22.3,27.8,23.5,25.7,23.5z M46.4,30.6
	c-2-0.1-3,1.1-2.9,3.7c0,2.4,0.9,3.5,2.9,3.5s3-1.2,3-3.5C49.4,31.8,48.4,30.6,46.4,30.6z M71,2.1v3.2v0.1c0,0.6-0.4,1.1-1,1.3
	c-2.3,0.5-4.1,2.3-4.1,4.4s1.7,3.9,4,4.3c0.8,0.1,1.1,0.6,1,1.3c0,0.1,0,0.1,0,0.2v4.5c0,0.1,0,0.1,0,0.2c0.1,0.6-0.4,1.1-1,1.3
	c-2.3,0.5-4,2.2-4,4.3s1.7,3.9,4,4.3c0.7,0.1,1,0.6,1,1.1v5.1c0,0.6-0.4,1-1,1.1c-2.3,0.5-4,2.2-4,4.3s1.7,3.9,4,4.3
	c0.4,0.1,0.8,0.5,0.9,0.7c0.1,0.1,0.1,0.1,0.1,0.2v0.1v0.1V52c0,0.6-0.6,1.1-1.2,1.1H2.2C1.6,53,1,52.4,1,51.9v-0.1v-3.1
	c0-0.1,0-0.2,0-0.3c0-0.6,0.4-1,1-1.1c2.3-0.5,4-2.2,4-4.3c0-2-1.7-3.7-4-4.1c-0.7-0.1-1-0.6-1-1.1v-5.1c0-0.6,0.4-1,1-1.1
	c2.3-0.5,4-2.2,4-4.3S4.3,23.4,2,23c-0.8-0.2-1.1-0.7-1-1.3v-0.1V17c0-0.1,0-0.1,0-0.2c-0.1-0.6,0.4-1.1,1-1.3c2.3-0.5,4-2.2,4-4.3
	C6,10.4,5.8,9.6,5.3,9C5.2,8.8,5.1,8.7,5,8.4C4.2,7.7,3.2,7,2.1,6.9C1.7,6.8,1.2,6.4,1.1,6C1,5.8,1,5.7,1,5.6V2.1C1,1.5,1.7,1,2.2,1
	h67.5C70.4,0.9,71,1.5,71,2.1z M25.7,26.8c4.9-0.1,7.3-2.4,7.4-7.1c-0.1-4.6-2.5-7.1-7.4-7.1c-4.9,0.2-7.4,2.5-7.5,7.1
	C18.3,24.3,20.8,26.6,25.7,26.8z M30.2,41.5l16.9-29.1h-5.3L25,41.5H30.2z M53.9,34.2c-0.1-4.5-2.5-6.9-7.4-7
	c-4.9,0.2-7.4,2.5-7.5,7.1c0.2,4.4,2.7,6.6,7.5,6.8C51.2,41.1,53.8,38.8,53.9,34.2z"/>
</svg>
