<?xml version="1.0" encoding="utf-8"?>
<!-- Generator: Adobe Illustrator 22.1.0, SVG Export Plug-In . SVG Version: 6.00 Build 0)  -->
<svg version="1.1" id="图层_1" xmlns="http://www.w3.org/2000/svg" xmlns:xlink="http://www.w3.org/1999/xlink" x="0px" y="0px"
	 viewBox="0 0 68 54" style="enable-background:new 0 0 68 54;" xml:space="preserve">
<style type="text/css">
	.st0{fill-rule:evenodd;clip-rule:evenodd;fill:url(#SVGID_1_);}
</style>
<linearGradient id="SVGID_1_" gradientUnits="userSpaceOnUse" x1="34" y1="5" x2="34" y2="51.6986">
	<stop  offset="0" style="stop-color:#779AFA"/>
	<stop  offset="1" style="stop-color:#65B4FD"/>
</linearGradient>
<path class="st0" d="M49.4,19.4c-8.6,0-15.6,7.1-15.6,15.8c0,8.7,7,15.8,15.6,15.8c8.6,0,15.6-7.1,15.6-15.8
	C65.1,26.5,58.1,19.4,49.4,19.4z M49.4,47.3c-6.6,0-11.9-5.4-11.9-12.1c0-6.7,5.4-12.1,11.9-12.1c6.6,0,11.9,5.4,11.9,12.1
	C61.4,41.9,56,47.3,49.4,47.3z M31.2,35.2L31.2,35.2c0-6.8,3.7-12.8,9.2-16H13l3.6-9.4c0.4-1.3,1.1-2.3,2.7-2.3h24.9
	c1.6,0,2.2,1,2.7,2.3l2.6,7c0,0,0,0,0,0c1.7,0,3.4,0.3,5,0.7L50.5,7.3C49.6,5,47.7,3,44.1,3H19.3c-3.6,0-5.6,2-6.4,4.3L8.1,19.5
	c-1.9,0.2-5.2,2.4-5.2,6.6v15.5h5.3v3.9c0,6.1,7.2,6,7.2,0v-3.9h17C31.7,39.6,31.2,37.5,31.2,35.2L31.2,35.2z M14.5,32.2
	c-2.2,0-4.1-1.9-4.1-4.2c0-2.3,1.8-4.2,4.1-4.2c2.2,0,4.1,1.9,4.1,4.2C18.6,30.4,16.7,32.2,14.5,32.2z M56.9,30.6
	c0.6,0.6,0.6,1.5,0,2.1l-7.8,7.8c-0.1,0.1-0.3,0.2-0.4,0.3c-0.1,0.1-0.1,0.2-0.2,0.3c-0.6,0.6-1.5,0.6-2.1,0l-4.9-4.9
	c-0.6-0.6-0.6-1.5,0-2.1c0.6-0.6,1.5-0.6,2.1,0l3.9,3.9l7.3-7.3C55.4,30,56.3,30,56.9,30.6z"/>
</svg>
