<?xml version="1.0" encoding="utf-8"?>
<!-- Generator: Adobe Illustrator 22.1.0, SVG Export Plug-In . SVG Version: 6.00 Build 0)  -->
<svg version="1.1" id="图层_1" xmlns="http://www.w3.org/2000/svg" xmlns:xlink="http://www.w3.org/1999/xlink" x="0px" y="0px"
	 viewBox="0 0 90 90" style="enable-background:new 0 0 90 90;" xml:space="preserve">
<style type="text/css">
	.st0{fill:url(#SVGID_1_);}
</style>
<linearGradient id="SVGID_1_" gradientUnits="userSpaceOnUse" x1="45" y1="1" x2="45" y2="91">
	<stop  offset="0" style="stop-color:#779AFA"/>
	<stop  offset="1" style="stop-color:#65B4FD"/>
</linearGradient>
<path class="st0" d="M45,0C20.1,0,0,20.1,0,45c0,24.9,20.1,45,45,45c24.9,0,45-20.1,45-45C90,20.1,69.9,0,45,0z M56.8,61.4L42,72.4
	l1.4-6.9C31.5,65.1,22,55.4,22,43.3c0-12.2,9.8-22.1,22-22.1c12.2,0,22,9.9,22,22.1C66,50.8,62.4,57.3,56.8,61.4z M55.8,49.4
	L55.8,49.4c-0.1,0.3-3.3,7.6-11.7,7.6c-8.7,0-11.8-7.3-11.9-7.6c-0.3-0.8,0.1-1.7,0.8-2c0.8-0.3,1.7,0.1,2,0.8
	c0.1,0.2,2.5,5.7,9.1,5.7c6.4,0,8.9-5.7,8.9-5.7c0.3-0.8,1.2-1.1,2-0.8C55.8,47.7,56.1,48.6,55.8,49.4z"/>
</svg>
