<?xml version="1.0" encoding="utf-8"?>
<!-- Generator: Adobe Illustrator 22.1.0, SVG Export Plug-In . SVG Version: 6.00 Build 0)  -->
<svg version="1.1" id="图层_1" xmlns="http://www.w3.org/2000/svg" xmlns:xlink="http://www.w3.org/1999/xlink" x="0px" y="0px"
	 viewBox="0 0 68 54" style="enable-background:new 0 0 68 54;" xml:space="preserve">
<style type="text/css">
	.st0{fill:url(#SVGID_1_);}
</style>
<linearGradient id="SVGID_1_" gradientUnits="userSpaceOnUse" x1="34" y1="-29" x2="34" y2="22.9914" gradientTransform="matrix(1 0 0 -1 0 24)">
	<stop  offset="0" style="stop-color:#BC82F1"/>
	<stop  offset="1" style="stop-color:#FA83E4"/>
</linearGradient>
<path class="st0" d="M56.1,40.7c7.6-12.2,3.8-28.2-8.4-35.7s-28.2-3.9-35.8,8.3s-3.8,28.3,8.4,35.8c8.4,5.2,19,5.2,27.4,0l3.6,3.6
	c0.2,0.2,0.5,0.3,0.8,0.3h6.8c0.6,0,1.1-0.5,1.1-1.1v-6.8c0-0.3-0.1-0.6-0.3-0.8L56.1,40.7z M34,43.9c-9.3,0-17-7.6-17-17
	s7.6-16.8,17-16.8c4.1,0,8,1.5,11.1,4.2l1.6-1.6c0.5-0.4,1.1-0.4,1.6,0c0.4,0.4,0.4,1.1,0,1.6l-1.6,1.6c2.7,3,4.2,7,4.2,11.1
	C50.9,36.4,43.4,43.9,34,43.9z M34,30.4c-1.8,0-3.4-1.5-3.4-3.4c0-1.8,1.5-3.4,3.4-3.4s3.4,1.5,3.4,3.4S35.9,30.4,34,30.4z M34,25.8
	c-0.6,0-1.1,0.5-1.1,1.1S33.4,28,34,28s1.1-0.5,1.1-1.1C35.2,26.4,34.7,25.8,34,25.8z M46.7,15.9l-9.6,9.6c-0.4,0.4-1.1,0.5-1.5,0
	l0,0c-0.4-0.4-0.5-1.1,0-1.5l0,0l9.6-9.7C45.7,14.8,46.3,15.3,46.7,15.9z"/>
</svg>
