<?xml version="1.0" encoding="utf-8"?>
<!-- Generator: Adobe Illustrator 22.1.0, SVG Export Plug-In . SVG Version: 6.00 Build 0)  -->
<svg version="1.1" id="图层_1" xmlns="http://www.w3.org/2000/svg" xmlns:xlink="http://www.w3.org/1999/xlink" x="0px" y="0px"
	 viewBox="0 0 68 54" style="enable-background:new 0 0 68 54;" xml:space="preserve">
<style type="text/css">
	.st0{fill:url(#SVGID_1_);}
</style>
<linearGradient id="SVGID_1_" gradientUnits="userSpaceOnUse" x1="34.0087" y1="-29" x2="34.0087" y2="22.9192" gradientTransform="matrix(1 0 0 -1 0 24)">
	<stop  offset="0" style="stop-color:#779AFA"/>
	<stop  offset="1" style="stop-color:#65B4FD"/>
</linearGradient>
<path class="st0" d="M30,49.3L11.6,30.7c-0.1-0.1-0.2-0.2-0.4-0.2s-0.6,0.2-0.6,0.5L8,50.6C7.9,51.9,8.8,53,10.1,53
	c0.1,0,0.2,0,0.3,0l19.3-2.7C30.2,50.3,30.4,49.6,30,49.3z M27.2,42.7L23,38.5L18.4,34L46.1,6l8.7,8.8L27.2,42.7z M16.4,31.9
	L14,29.5c-0.2-0.2-0.3-0.4-0.4-0.6c0-0.1-0.1-0.2-0.1-0.2v-0.1c0-0.2,0-0.6,0.2-0.9c0.1-0.2,0.2-0.4,0.4-0.6L39.4,1.6
	c0.2-0.2,0.3-0.2,0.5-0.3c0.1,0,0.2-0.1,0.2-0.1C40.3,1.1,40.4,1,40.6,1c0.1,0,0.2,0,0.3,0c0.2,0,0.2,0.1,0.4,0.2
	c0.2,0.1,0.3,0.2,0.5,0.3l2.4,2.4L16.4,31.9z M59.5,21.8L34.2,47.5c-0.1,0.1-0.2,0.1-0.2,0.2c-0.6,0.5-1.6,0.5-2.2-0.2l-2.7-2.7
	l27.7-28l2.7,2.7C60.2,20.1,60.2,21.2,59.5,21.8z"/>
</svg>
