<?xml version="1.0" encoding="utf-8"?>
<!-- Generator: Adobe Illustrator 22.1.0, SVG Export Plug-In . SVG Version: 6.00 Build 0)  -->
<svg version="1.1" id="图层_1" xmlns="http://www.w3.org/2000/svg" xmlns:xlink="http://www.w3.org/1999/xlink" x="0px" y="0px"
	 viewBox="0 0 68 54" style="enable-background:new 0 0 68 54;" xml:space="preserve">
<style type="text/css">
	.st0{fill:url(#SVGID_1_);}
</style>
<linearGradient id="SVGID_1_" gradientUnits="userSpaceOnUse" x1="33.9231" y1="51.3333" x2="33.9231" y2="1.6547">
	<stop  offset="0" style="stop-color:#FEB16D"/>
	<stop  offset="1" style="stop-color:#F88D72"/>
</linearGradient>
<path class="st0" d="M58.1,13.8c-0.3-0.5-0.3-0.9-0.1-1c0.1,0,0.1-0.1,0.2-0.1c0.2,0,0.5,0.1,0.8,0.4c0.8,0.8,1.2,1.7,1.3,2.5
	C59.3,15.3,58.5,14.6,58.1,13.8z M38.7,22.7c-0.9,0.3-1.8-0.2-2.1-1.1c-0.2-0.7-1-1.5-2.6-1.5c-1.2,0-1.9,0.8-2,1.7
	c-0.1,1,0.8,1.9,2.4,2.2c3.8,0.8,5.3,3.6,5,6c-0.2,2.2-1.7,3.9-3.7,4.6v1.1c0,1-0.8,1.8-1.7,1.8c-0.9,0-1.7-0.8-1.7-1.8v-1
	c-2.3-0.6-3.6-2.2-4.1-3.7c-0.3-0.9,0.2-1.9,1.1-2.2c0.9-0.3,1.8,0.2,2.1,1.1c0.2,0.7,1.1,1.5,2.6,1.5c1.2,0,1.9-0.8,2-1.7
	c0.1-1-0.8-1.9-2.4-2.2c-3.8-0.8-5.3-3.6-5-6c0.2-2.2,1.7-3.9,3.7-4.6v-1.1c0-1,0.8-1.8,1.7-1.8c0.9,0,1.7,0.8,1.7,1.8v1
	c2.3,0.6,3.6,2.2,4.1,3.7C40,21.4,39.6,22.4,38.7,22.7z M16.7,20.2c-1.2,0-2.1-1-2.1-2.2s0.9-2.2,2.1-2.2c1.2,0,2.1,1,2.1,2.2
	S17.9,20.2,16.7,20.2z M66.9,13.8c-0.6-0.4-1.4-0.2-1.7,0.4c-0.7,1-1.6,1.5-2.3,1.7c0-1.5-0.7-3.2-2-4.5c-1.2-1.3-3-1.6-4.3-0.6
	c-0.9,0.7-1.7,2.3-0.7,4.4c0.6,1.3,1.8,2.3,3.1,3c-0.3,0.2-0.6,0.4-0.9,0.6c-0.8,0.4-1.5,0.6-2.3,0.8C52.2,11.6,42.8,6,31.8,6
	c-2.2,0-4.2,0.2-6.1,0.4c-3.1-2.2-9-4.8-14.8-4.4c0.3,2.6,1.8,5.9,3.7,8.2c-3.7,2.4-6.1,5.7-7.3,9.6c-1.4,0.7-2.9,1.1-4.7,1.2
	c-1.3,0.1-2.2,1.2-2.1,2.5c0.2,3.4,1.2,9.2,5,10.7c0.7,0.3,1.8,0.5,3.2,0.5c1.6,2.8,4,5.2,6.9,7.1c-0.5,2.6-1.1,5.1-1.8,7.8
	c-0.3,1.1,0.5,2.3,1.6,2.3h7c0.7,0,1.3-0.5,1.6-1.1c0.6-1.6,1-3.2,1.4-4.8c2.1,0.4,4.3,0.7,6.5,0.7c2.6,0,5.2-0.3,7.6-0.9
	c-0.3,1.3-0.6,2.6-1,3.9C38,50.9,38.8,52,39.9,52h7c0.7,0,1.3-0.5,1.6-1.1c1.3-3.6,2.1-7.3,2.6-11.2c3.9-3.6,6.2-8.2,6.2-13.3
	c0-1.6-0.2-3.1-0.6-4.5c0.8-0.2,1.6-0.5,2.5-0.9c1.4-0.7,2.2-1.5,2.8-2.3c2.2,0,4.1-1.1,5.3-3C67.6,15,67.4,14.2,66.9,13.8z"/>
</svg>
