<?xml version="1.0" encoding="utf-8"?>
<!-- Generator: Adobe Illustrator 22.1.0, SVG Export Plug-In . SVG Version: 6.00 Build 0)  -->
<svg version="1.1" id="图层_1" xmlns="http://www.w3.org/2000/svg" xmlns:xlink="http://www.w3.org/1999/xlink" x="0px" y="0px"
	 viewBox="0 0 40 40" style="enable-background:new 0 0 40 40;" xml:space="preserve">
<style type="text/css">
	.st0{fill:url(#SVGID_1_);}
</style>
<linearGradient id="SVGID_1_" gradientUnits="userSpaceOnUse" x1="20" y1="39" x2="20" y2="-1">
	<stop  offset="0" style="stop-color:#779AFA"/>
	<stop  offset="1" style="stop-color:#65B4FD"/>
</linearGradient>
<path class="st0" d="M38.8,17.3L23.5,1.5c-1-1-2.3-1.5-3.5-1.5c-1.3,0-2.5,0.5-3.5,1.5L1.2,17.3c-1.5,1.8-1.3,3-1,3.7
	c0,0.3,0.8,1.5,2.5,1.5H5v12.2C5,37.5,7,40,9.7,40h6.5V27.2c0-1.5-0.3-2.2,1.3-2.2h5c1.5,0,1.3,0.7,1.3,2.2V40h6.5
	c2.8,0,4.8-2.5,4.8-5.2V22.5h2.3c1.8,0,2.5-1.3,2.5-1.5C40.1,20.2,40.3,19,38.8,17.3z"/>
</svg>
