<?xml version="1.0" encoding="utf-8"?>
<!-- Generator: Adobe Illustrator 22.1.0, SVG Export Plug-In . SVG Version: 6.00 Build 0)  -->
<svg version="1.1" id="图层_1" xmlns="http://www.w3.org/2000/svg" xmlns:xlink="http://www.w3.org/1999/xlink" x="0px" y="0px"
	 viewBox="0 0 40 40" style="enable-background:new 0 0 40 40;" xml:space="preserve">
<style type="text/css">
	.st0{fill:#282828;}
</style>
<path class="st0" d="M20,2.6c2.1,0,4.1,0.8,5.6,2.3c1.5,1.4,2.3,3.4,2.3,5.4c0,4.2-3.6,7.7-7.9,7.7s-7.9-3.5-7.9-7.7
	c0-2,0.8-4,2.3-5.4C15.9,3.4,17.9,2.6,20,2.6z M24.4,25.5c6.1,0,11,4.8,11,10.7v0.5c-1.6,0.8-7.7,0.8-11,0.8h-8.8
	c-3.8,0-9.5,0-11-0.8v-0.5c0-5.9,4.9-10.7,11-10.7H24.4z M20,0C14.2,0,9.5,4.6,9.5,10.3c0,5.7,4.7,10.3,10.5,10.3
	s10.5-4.6,10.5-10.3C30.5,4.6,25.8,0,20,0z M24.4,22.9h-8.8C8.1,22.9,2,28.8,2,36.1V37c0,3,6.1,3,13.6,3h8.8c7.5,0,13.6-0.1,13.6-3
	v-0.9C38,28.8,31.9,22.9,24.4,22.9z"/>
</svg>
