<?xml version="1.0" encoding="utf-8"?>
<!-- Generator: Adobe Illustrator 22.1.0, SVG Export Plug-In . SVG Version: 6.00 Build 0)  -->
<svg version="1.1" id="图层_1" xmlns="http://www.w3.org/2000/svg" xmlns:xlink="http://www.w3.org/1999/xlink" x="0px" y="0px"
	 viewBox="0 0 40 40" style="enable-background:new 0 0 40 40;" xml:space="preserve">
<style type="text/css">
	.st0{fill:url(#SVGID_1_);}
</style>
<linearGradient id="SVGID_1_" gradientUnits="userSpaceOnUse" x1="20" y1="37.5" x2="20" y2="1.558">
	<stop  offset="0" style="stop-color:#779AFA"/>
	<stop  offset="1" style="stop-color:#65B4FD"/>
</linearGradient>
<path class="st0" d="M20,0C14.2,0,9.5,4.6,9.5,10.3c0,5.7,4.7,10.3,10.5,10.3s10.5-4.6,10.5-10.3C30.5,4.6,25.8,0,20,0z M24.4,22.9
	h-8.8C8.1,22.9,2,28.8,2,36.1V37c0,3,6.1,3,13.6,3h8.8c7.5,0,13.6-0.1,13.6-3v-0.9C38,28.8,31.9,22.9,24.4,22.9z"/>
</svg>
