<?xml version="1.0" encoding="utf-8"?>
<!-- Generator: Adobe Illustrator 22.1.0, SVG Export Plug-In . SVG Version: 6.00 Build 0)  -->
<svg version="1.1" id="图层_1" xmlns="http://www.w3.org/2000/svg" xmlns:xlink="http://www.w3.org/1999/xlink" x="0px" y="0px"
	 viewBox="0 0 40 40" style="enable-background:new 0 0 40 40;" xml:space="preserve">
<style type="text/css">
	.st0{fill:#282828;}
</style>
<path class="st0" d="M14.4,30.6c-2.5,0-4.5,2-4.5,4.5s2,4.5,4.5,4.5s4.5-2,4.5-4.5S16.9,30.6,14.4,30.6z M14.4,36.8
	c-1.1,0-1.8-0.8-1.8-1.8s0.8-1.8,1.8-1.8s1.8,0.8,1.8,1.8S15.4,36.8,14.4,36.8z M29.9,30.6c-2.5,0-4.5,2-4.5,4.5s2,4.5,4.5,4.5
	s4.5-2,4.5-4.5S32.4,30.6,29.9,30.6z M29.9,36.8c-1.1,0-1.8-0.8-1.8-1.8s0.8-1.8,1.8-1.8s1.8,0.8,1.8,1.8S31,36.8,29.9,36.8z
	 M38.8,7.4c-0.7-0.8-1.7-1.2-2.8-1.2L7.7,6.1l-0.3-2C7.1,2,5.2,0.4,3.3,0.4H1.4c-0.8,0-1.3,0.7-1.3,1.3C0.1,2.5,0.8,3,1.4,3h1.8
	c0.7,0,1.3,0.7,1.5,1.3L6,12.2l2.4,13.2c0.3,2,2,3.7,4.1,3.7h23.1c0.8,0,1.3-0.7,1.3-1.3c0-0.9-0.7-1.5-1.3-1.5H12.5
	c-0.7,0-1.3-0.5-1.3-1.3L11,24.2L33.6,22c2,0,3.8-1.6,4.1-3.6l2.1-7.5C40,9.6,39.6,8.3,38.8,7.4z M35,18c-0.1,0.7-0.8,1.2-1.5,1.2
	l-23,2.4l-1.8-9.5L8.1,8.7H36c0.3,0,0.5,0.1,0.8,0.4c0.3,0.4,0.4,0.9,0.4,1.3L35,18z"/>
</svg>
