<?xml version="1.0" encoding="utf-8"?>
<!-- Generator: Adobe Illustrator 22.1.0, SVG Export Plug-In . SVG Version: 6.00 Build 0)  -->
<svg version="1.1" id="图层_1" xmlns="http://www.w3.org/2000/svg" xmlns:xlink="http://www.w3.org/1999/xlink" x="0px" y="0px"
	 viewBox="0 0 39.8 40" style="enable-background:new 0 0 39.8 40;" xml:space="preserve">
<style type="text/css">
	.st0{fill:#282828;}
	.st1{fill:url(#SVGID_1_);}
</style>
<g id="图层_1">
	<g>
		<path class="st0" d="M18.7,35.1c0,2.5-2,4.5-4.5,4.5s-4.5-2-4.5-4.5s2-4.5,4.5-4.5S18.7,32.6,18.7,35.1z M29.8,30.6
			c-2.5,0-4.5,2-4.5,4.5s2,4.5,4.5,4.5c2.5,0,4.5-2,4.5-4.5S32.3,30.6,29.8,30.6z M38.7,7.4C38,6.6,37,6.2,35.9,6.2L7.6,6.1l-0.3-2
			C7,2,5.1,0.4,3.2,0.4H1.3C0.5,0.4,0,1.1,0,1.7C0,2.5,0.7,3,1.3,3h1.8c0.7,0,1.3,0.7,1.5,1.3l1.3,7.9l2.4,13.2c0.3,2,2,3.7,4.1,3.7
			h23.1c0.8,0,1.3-0.7,1.3-1.3c0-0.9-0.7-1.5-1.3-1.5H12.4c-0.7,0-1.3-0.5-1.3-1.3l-0.2-0.8L33.5,22c2,0,3.8-1.6,4.1-3.6l2.1-7.5
			C39.9,9.6,39.5,8.3,38.7,7.4z"/>
	</g>
	<g>
		<linearGradient id="SVGID_1_" gradientUnits="userSpaceOnUse" x1="19.8835" y1="39.6667" x2="19.8835" y2="1.0566">
			<stop  offset="0" style="stop-color:#779AFA"/>
			<stop  offset="1" style="stop-color:#65B4FD"/>
		</linearGradient>
		<path class="st1" d="M18.7,35.1c0,2.5-2,4.5-4.5,4.5s-4.5-2-4.5-4.5s2-4.5,4.5-4.5S18.7,32.6,18.7,35.1z M29.8,30.6
			c-2.5,0-4.5,2-4.5,4.5s2,4.5,4.5,4.5c2.5,0,4.5-2,4.5-4.5S32.3,30.6,29.8,30.6z M38.7,7.4C38,6.6,37,6.2,35.9,6.2L7.6,6.1l-0.3-2
			C7,2,5.1,0.4,3.2,0.4H1.3C0.5,0.4,0,1.1,0,1.7C0,2.5,0.7,3,1.3,3h1.8c0.7,0,1.3,0.7,1.5,1.3l1.3,7.9l2.4,13.2c0.3,2,2,3.7,4.1,3.7
			h23.1c0.8,0,1.3-0.7,1.3-1.3c0-0.9-0.7-1.5-1.3-1.5H12.4c-0.7,0-1.3-0.5-1.3-1.3l-0.2-0.8L33.5,22c2,0,3.8-1.6,4.1-3.6l2.1-7.5
			C39.9,9.6,39.5,8.3,38.7,7.4z"/>
	</g>
</g>
</svg>
