<?xml version="1.0" encoding="utf-8"?>
<!-- Generator: Adobe Illustrator 22.1.0, SVG Export Plug-In . SVG Version: 6.00 Build 0)  -->
<svg version="1.1" id="图层_1" xmlns="http://www.w3.org/2000/svg" xmlns:xlink="http://www.w3.org/1999/xlink" x="0px" y="0px"
	 viewBox="0 0 40 40" style="enable-background:new 0 0 40 40;" xml:space="preserve">
<style type="text/css">
	.st0{fill:#282828;}
</style>
<path class="st0" d="M37.3,20h-4.8v14.7c0,1.5-1,2.7-2.3,2.7h-4V27.2c0-2.7-1-4.7-3.8-4.7h-5c-2.8,0-3.8,2-3.8,4.7v10.3h-4
	c-1.3,0-2.3-1.5-2.3-2.7V20H2.7v-0.3c0-0.3,0.3-0.5,0.5-0.7L18.5,3.2c0.3-0.5,1-0.8,1.5-0.8c0.5,0,1.3,0.3,1.8,0.8L37.1,19
	C37.1,19.2,37.3,19.8,37.3,20C37.3,19.8,37.3,20,37.3,20z M38.8,17.3L23.5,1.5c-1-1-2.3-1.5-3.5-1.5c-1.3,0-2.5,0.5-3.5,1.5
	L1.2,17.3c-1.5,1.8-1.3,3-1,3.7c0,0.3,0.8,1.5,2.5,1.5H5v12.2C5,37.5,7,40,9.7,40h6.5V27.2c0-1.5-0.3-2.2,1.3-2.2h5
	c1.5,0,1.3,0.7,1.3,2.2V40h6.5c2.8,0,4.8-2.5,4.8-5.2V22.5h2.3c1.8,0,2.5-1.3,2.5-1.5C40.1,20.2,40.3,19,38.8,17.3z"/>
</svg>
