<?xml version="1.0" encoding="utf-8"?>
<!-- Generator: Adobe Illustrator 22.1.0, SVG Export Plug-In . SVG Version: 6.00 Build 0)  -->
<svg version="1.1" id="图层_1" xmlns="http://www.w3.org/2000/svg" xmlns:xlink="http://www.w3.org/1999/xlink" x="0px" y="0px"
	 viewBox="0 0 34.6 38.1" style="enable-background:new 0 0 34.6 38.1;" xml:space="preserve">
<style type="text/css">
	.st0{fill:url(#SVGID_1_);}
</style>
<linearGradient id="SVGID_1_" gradientUnits="userSpaceOnUse" x1="17.3205" y1="1.7385" x2="17.3205" y2="36.3795">
	<stop  offset="0" style="stop-color:#FA9180"/>
	<stop  offset="1" style="stop-color:#FC6AA4"/>
</linearGradient>
<path class="st0" d="M31.6,7.3L20.3,0.8c-1.9-1.1-4.1-1.1-6,0L3,7.3c-1.9,1.1-3,3.1-3,5.2v13.1c0,2.1,1.1,4.1,3,5.2l11.3,6.5
	c1.9,1.1,4.1,1.1,6,0l11.3-6.5c1.9-1.1,3-3.1,3-5.2V12.5C34.6,10.4,33.5,8.4,31.6,7.3z M21,29.5c2.3-4.5,0.6-10.8-3.5-13.6
	c0.2,1.2-0.1,4.5-1.8,6.5c0.4-2.1-0.6-3.4-0.6-3.4s-0.3,1.9-1.6,3.8c-1.2,1.7-2,3.6-0.5,6.8c-4.9-2.8-6.2-5.4-5.5-9.1
	c0.6-2.7,2.6-4.8,2.7-7.5c0.8,1.5,0.9,2.4,1,3.9c2.4-3,4.9-7,4.3-10.6c0,0,4.6,1.4,6.4,8.5c1.1-1,1-3,0.5-4.2
	C24.1,11.7,33.4,22.3,21,29.5z"/>
</svg>
