<?xml version="1.0" encoding="utf-8"?>
<!-- Generator: Adobe Illustrator 22.1.0, SVG Export Plug-In . SVG Version: 6.00 Build 0)  -->
<svg version="1.1" id="图层_1" xmlns="http://www.w3.org/2000/svg" xmlns:xlink="http://www.w3.org/1999/xlink" x="0px" y="0px"
	 viewBox="0 0 90 90" style="enable-background:new 0 0 90 90;" xml:space="preserve">
<style type="text/css">
	.st0{fill:url(#SVGID_1_);}
</style>
<linearGradient id="SVGID_1_" gradientUnits="userSpaceOnUse" x1="45" y1="90" x2="45" y2="0">
	<stop  offset="0" style="stop-color:#BC82F1"/>
	<stop  offset="1" style="stop-color:#FA83E4"/>
</linearGradient>
<path class="st0" d="M45,0C20.1,0,0,20.1,0,45c0,24.9,20.1,45,45,45c24.9,0,45-20.1,45-45C90,20.1,69.9,0,45,0z M65,43.1
	c0,9.3-5.4,17.2-18.1,26.2c-0.6,0.4-1.2,0.6-1.9,0.6c-0.7,0-1.3-0.2-1.9-0.6C30.4,60.3,25,52.4,25,43.1V32.8c0-1.9,1.5-3.4,3.3-3.4
	c7.4,0,14.3-6.2,14.4-6.3c0.6-0.6,1.4-0.9,2.2-0.9c0.8,0,1.6,0.3,2.2,0.9c0.1,0.1,7,6.3,14.4,6.3c1.8,0,3.3,1.5,3.3,3.4V43.1z
	 M47.5,43.5h5.6v5.1h-5.6v6.3h-5v-6.3h-5.6v-5.1h5.6v-5.7h5V43.5z"/>
</svg>
