<?xml version="1.0" encoding="utf-8"?>
<!-- Generator: Adobe Illustrator 22.1.0, SVG Export Plug-In . SVG Version: 6.00 Build 0)  -->
<svg version="1.1" id="图层_1" xmlns="http://www.w3.org/2000/svg" xmlns:xlink="http://www.w3.org/1999/xlink" x="0px" y="0px"
	 viewBox="0 0 90 90" style="enable-background:new 0 0 90 90;" xml:space="preserve">
<style type="text/css">
	.st0{fill:url(#SVGID_1_);}
</style>
<linearGradient id="SVGID_1_" gradientUnits="userSpaceOnUse" x1="45" y1="90" x2="45" y2="-9.094947e-13">
	<stop  offset="0" style="stop-color:#FEB16D"/>
	<stop  offset="1" style="stop-color:#F88D72"/>
</linearGradient>
<path class="st0" d="M45.3,47.1c0,0.1,0,0.3,0,0.4c0,2.5-2.2,4.6-4.9,4.6c-2.7,0-4.9-2-4.9-4.6c0-0.1,0-0.2,0-0.4l0-0.2
	c0-0.1,0-0.1,0-0.2c0-0.1,0-0.1,0-0.2c0.3-1.4,1.4-3.6,4.8-5.9c3.4,2.3,4.4,4.5,4.7,5.9c0,0.1,0,0.1,0,0.2c0,0.1,0,0.2,0,0.2
	C45.3,47,45.3,47,45.3,47.1z M90,45c0,24.9-20.1,45-45,45C20.1,90,0,69.9,0,45C0,20.1,20.1,0,45,0C69.9,0,90,20.1,90,45z M31.8,26.8
	H40v-2.4c0-1.1-1.1-2.2-2.2-2.2h-4.2c-1.1,0-2,1.1-2,2.2V26.8z M62.6,32.1c0-1.2-0.4-2.3-1.2-3.1l-4.6-4.9c-2.3-2.4-5.9-2.6-8.4-0.4
	l-4.8,4c-0.6,0.5-1.4,0.7-2.3,0.7h-11c-1.3,0-2.4,1.5-2.4,2.8v30.6c0,3.6,2.8,6.4,6.3,6.4h22.1c3.5,0,6.2-2.9,6.2-6.4V32.1z"/>
</svg>
