<?xml version="1.0" encoding="utf-8"?>
<!-- Generator: Adobe Illustrator 22.1.0, SVG Export Plug-In . SVG Version: 6.00 Build 0)  -->
<svg version="1.1" id="图层_1" xmlns="http://www.w3.org/2000/svg" xmlns:xlink="http://www.w3.org/1999/xlink" x="0px" y="0px"
	 viewBox="0 0 34.6 38.1" style="enable-background:new 0 0 34.6 38.1;" xml:space="preserve">
<style type="text/css">
	.st0{fill:url(#SVGID_1_);}
</style>
<linearGradient id="SVGID_1_" gradientUnits="userSpaceOnUse" x1="17.3205" y1="36.0718" x2="17.3205" y2="1.4308">
	<stop  offset="0" style="stop-color:#BC82F1"/>
	<stop  offset="1" style="stop-color:#FA83E4"/>
</linearGradient>
<path class="st0" d="M22.8,12.5c0,0.4,0.1,1.2-0.8,1.1c-1.1-0.1-2.2-0.3-3.3-0.4c-0.6-0.1-0.8-0.9-0.4-1.3c0.4-0.5,0.7-0.6,1-0.8
	c0.4-0.2,0.9-0.3,1.3-0.2c0.5,0.1,0.9,0.2,1.6,0.4C22.8,11.6,22.8,12.1,22.8,12.5z M11.9,21.3c0,1.4,1.2,2.5,2.6,2.5
	c1.4,0,2.6-1.1,2.6-2.5c0-0.9-0.9-2.3-2.6-4.2C12.8,19,11.9,20.4,11.9,21.3z M34.6,12.5v13.1c0,2.1-1.1,4.1-3,5.2l-11.3,6.5
	c-1.9,1.1-4.1,1.1-6,0L3,30.8c-1.9-1.1-3-3.1-3-5.2V12.5c0-2.1,1.1-4.1,3-5.2l11.3-6.5c1.9-1.1,4.1-1.1,6,0l11.3,6.5
	C33.5,8.4,34.6,10.4,34.6,12.5z M9.1,9.8h4.4V9.1c0-0.5-0.5-1-1-1h-2.3h0c-0.6,0-1,0.4-1,1V9.8z M26.3,17.6c0-0.1,0-0.1,0-0.2v-4.9
	c0-2.4-1.9-3.1-2.5-3.3c-0.6-0.2-2.5-0.6-3.8-0.8c-1.9-0.4-2.4,0.1-3.1,0.7c-0.5,0.5-1.7,1.5-2.4,2.5c-0.4-0.6-1-1-1.8-1h-2.3
	c-1.2,0-2.1,0.9-2.1,2v13.5c0,0.5,0.2,1,0.6,1.4c0.4,0.4,0.9,0.6,1.5,0.6h13.8c0.6,0,1.1-0.2,1.5-0.6c0.4-0.4,0.6-0.9,0.6-1.4V17.6z
	"/>
</svg>
