<?xml version="1.0" encoding="utf-8"?>
<!-- Generator: Adobe Illustrator 22.1.0, SVG Export Plug-In . SVG Version: 6.00 Build 0)  -->
<svg version="1.1" id="图层_1" xmlns="http://www.w3.org/2000/svg" xmlns:xlink="http://www.w3.org/1999/xlink" x="0px" y="0px"
	 viewBox="0 0 38 38" style="enable-background:new 0 0 38 38;" xml:space="preserve">
<style type="text/css">
	.st0{fill:url(#SVGID_1_);}
</style>
<linearGradient id="SVGID_1_" gradientUnits="userSpaceOnUse" x1="19" y1="37.5" x2="19" y2="-0.5">
	<stop  offset="0" style="stop-color:#779AFA"/>
	<stop  offset="1" style="stop-color:#65B4FD"/>
</linearGradient>
<path class="st0" d="M19,0C8.5,0,0,8.5,0,19s8.5,19,19,19s19-8.5,19-19S29.5,0,19,0z M11.1,9h15.7c0.5,0,0.9,0.4,0.9,0.9
	c0,0.5-0.4,0.9-0.9,0.9H11.1c-0.5,0-0.9-0.4-0.9-0.9C10.2,9.4,10.6,9,11.1,9z M28.1,26.8c0,0.6-0.7,1.2-1.2,1.2H11.1
	c-0.6,0-1.2-0.7-1.2-1.2v-6.4h1.6v6.1h15.1v-6.1h1.6V26.8z M27.2,19.5c-1.5,0-2.8-1.2-2.8-2.6c0,1.4-1.2,2.6-2.8,2.6
	S19,18.3,19,16.9c0,1.4-1.2,2.6-2.8,2.6s-2.8-1.2-2.8-2.6c0,1.4-1.2,2.6-2.8,2.6S8,18.3,8,16.9l1.9-4.8H28l2,4.8
	C30,18.3,28.8,19.5,27.2,19.5z"/>
</svg>
