<?xml version="1.0" encoding="utf-8"?>
<!-- Generator: Adobe Illustrator 22.1.0, SVG Export Plug-In . SVG Version: 6.00 Build 0)  -->
<svg version="1.1" id="图层_1" xmlns="http://www.w3.org/2000/svg" xmlns:xlink="http://www.w3.org/1999/xlink" x="0px" y="0px"
	 viewBox="0 0 68 54" style="enable-background:new 0 0 68 54;" xml:space="preserve">
<style type="text/css">
	.st0{fill:url(#SVGID_1_);}
</style>
<linearGradient id="SVGID_1_" gradientUnits="userSpaceOnUse" x1="34" y1="533.8475" x2="34" y2="491.8475" gradientTransform="matrix(1 0 0 1 0 -485.8)">
	<stop  offset="0" style="stop-color:#FA9180"/>
	<stop  offset="1" style="stop-color:#FC6AA4"/>
</linearGradient>
<path class="st0" d="M68,32.7V24c0-1.9-1.6-3.6-3.5-3.6h-0.3c-1.3,0-2.4-0.6-3.1-1.8L55,7.8c-0.6-1-1.8-1.8-3.1-1.8H22.3
	c-1.3,0-2.4,0.6-3.1,1.8L12,18.6c-0.6,1.1-2.9,1.8-4.1,1.8H3.5C1.6,20.4,0,22,0,24v8.7v2v3.7c0,2,1.6,3.6,3.5,3.6h3.3
	c1.4,0,3.6,0.9,4.2,2c1.3,2.4,3.7,4,6.5,4c2.9,0,5.3-1.6,6.5-4c0.6-1.2,1.8-2,3.2-2h13.6c1.4,0,2.5,0.9,3.2,2c1.3,2.4,3.7,4,6.6,4
	c2.9,0,5.3-1.6,6.5-4c0.6-1.2,1.8-2,3.2-2h4.2c1.9,0,3.5-1.6,3.5-3.6V32.7z M17.4,44.1c-2.5,0-4.5-2-4.5-4.6s2-4.6,4.5-4.6
	s4.5,2,4.5,4.6C22,42.1,20,44.1,17.4,44.1z M31.9,22.9H19.8c-1.6,0-2.6-1.8-1.8-3.2l5-8c0.4-0.6,1.1-1.1,1.8-1.1H32
	c1.2,0,2.1,1,2.1,2.2v8C34.1,21.9,33.1,22.9,31.9,22.9z M38.9,20.8v-8c0-1.2,1-2.2,2.1-2.2h9.1c1.2,0,2.1,1,2.1,2.2v8
	c0,1.2-1,2.2-2.1,2.2H41C39.9,22.9,38.9,21.9,38.9,20.8z M50.6,44.1c-2.5,0-4.5-2-4.5-4.6s2-4.6,4.5-4.6s4.5,2,4.5,4.6
	S53,44.1,50.6,44.1z"/>
</svg>
