<?xml version="1.0" encoding="utf-8"?>
<!-- Generator: Adobe Illustrator 22.1.0, SVG Export Plug-In . SVG Version: 6.00 Build 0)  -->
<svg version="1.1" id="图层_1" xmlns="http://www.w3.org/2000/svg" xmlns:xlink="http://www.w3.org/1999/xlink" x="0px" y="0px"
	 viewBox="0 0 68 54" style="enable-background:new 0 0 68 54;" xml:space="preserve">
<style type="text/css">
	.st0{fill:url(#SVGID_1_);}
</style>
<linearGradient id="SVGID_1_" gradientUnits="userSpaceOnUse" x1="34" y1="24.0725" x2="34" y2="-29.9282" gradientTransform="matrix(1 0 0 -1 0 24)">
	<stop  offset="0" style="stop-color:#FA9180"/>
	<stop  offset="1" style="stop-color:#FC6AA4"/>
</linearGradient>
<path class="st0" d="M19.5,22.5L19.5,22.5l0.1,26c3.7,3.4,8.9,5.5,14.5,5.5s10.9-2.1,14.5-5.5v-26h0.1c-3.7-3.4-8.9-5.6-14.6-5.6
	C28.3,16.8,23.1,19,19.5,22.5z M34,48.8c-4.6,0-8.3-3.3-8.3-7.6h16.7C42.3,45.5,38.6,48.8,34,48.8z M63,35.7
	c0,6.7-5.5,12.1-12.3,12.1v-24c1.3,0,2.6,0.2,3.8,0.6v-1.1c0-10.7-8.9-19.5-19.8-19.5s-19.9,8.6-19.9,19.4V24
	c0.8-0.2,1.7-0.3,2.5-0.3v24.1c-6.8,0-12.3-5.3-12.3-12c0-4.4,2.3-8.2,5.9-10.3v-2.3C10.9,10.4,21.5,0,34.5,0
	c13.2-0.1,23.8,10.3,23.8,23.1v3.2C61.2,28.5,63,31.9,63,35.7z"/>
</svg>
