<?xml version="1.0" encoding="utf-8"?>
<!-- Generator: Adobe Illustrator 21.1.0, SVG Export Plug-In . SVG Version: 6.00 Build 0)  -->
<svg version="1.1" id="图层_1" xmlns="http://www.w3.org/2000/svg" xmlns:xlink="http://www.w3.org/1999/xlink" x="0px" y="0px"
	 viewBox="0 0 66 66" style="enable-background:new 0 0 66 66;" xml:space="preserve">
<style type="text/css">
	.st0{fill:url(#SVGID_1_);}
</style>
<linearGradient id="SVGID_1_" gradientUnits="userSpaceOnUse" x1="33.7061" y1="6" x2="33.7061" y2="68" gradientTransform="matrix(1 0 0 -1 0 68)">
	<stop  offset="0" style="stop-color:#FEB16D"/>
	<stop  offset="1" style="stop-color:#F88D72"/>
</linearGradient>
<path class="st0" d="M54.4,6.1h-8l-1.7-3.3C43.9,1.1,42.1,0,40.1,0H27.5c-1.9,0-3.7,1.1-4.6,2.8l-1.7,3.3h-8c-2.8,0-5.1,2.3-5.1,5.1
	v45.7c0,2.8,2.3,5.1,5.1,5.1h41c2.8,0,5.1-2.3,5.1-5.1V11.2C59.5,8.4,57.2,6.1,54.4,6.1z M17.4,51.1c-1.7,0-3-1.3-3-3s1.3-3,3-3
	s3,1.3,3,3S19,51.1,17.4,51.1z M17.4,40.1c-1.7,0-3-1.3-3-3s1.3-3,3-3s3,1.3,3,3S19,40.1,17.4,40.1z M17.4,29.1c-1.7,0-3-1.3-3-3
	s1.3-3,3-3s3,1.3,3,3S19,29.1,17.4,29.1z M24.3,9.2l2.1-4.1C26.7,4.4,27.5,4,28.2,4h11.3c0.8,0,1.5,0.4,1.8,1.1l2.1,4.1
	c0.7,1.4-0.3,2.9-1.8,2.9H26.1C24.6,12.2,23.6,10.6,24.3,9.2z M25.5,24.1h24.9c1.1,0,2,0.9,2,2s-0.9,2-2,2H25.5c-1.1,0-2-0.9-2-2
	S24.4,24.1,25.5,24.1z M25.5,34.9h20.2c1.1,0,2,0.9,2,2s-0.9,2-2,2H25.5c-1.1,0-2-0.9-2-2C23.5,35.8,24.4,34.9,25.5,34.9z
	 M50.7,49.7H25.5c-1.1,0-2-0.9-2-2s0.9-2,2-2h25.2c1.1,0,2,0.9,2,2S51.8,49.7,50.7,49.7z"/>
</svg>
