<?xml version="1.0" encoding="utf-8"?>
<!-- Generator: Adobe Illustrator 22.1.0, SVG Export Plug-In . SVG Version: 6.00 Build 0)  -->
<svg version="1.1" id="图层_1" xmlns="http://www.w3.org/2000/svg" xmlns:xlink="http://www.w3.org/1999/xlink" x="0px" y="0px"
	 viewBox="0 0 72 54" style="enable-background:new 0 0 72 54;" xml:space="preserve">
<style type="text/css">
	.st0{fill:url(#SVGID_1_);}
</style>
<linearGradient id="SVGID_1_" gradientUnits="userSpaceOnUse" x1="36" y1="481.2471" x2="36" y2="558.1996" gradientTransform="matrix(1 0 0 1 0 -474.9001)">
	<stop  offset="0" style="stop-color:#FEB16D"/>
	<stop  offset="1" style="stop-color:#F88D72"/>
</linearGradient>
<path class="st0" d="M36-0.1c-16.5,0-30,12.1-30,27c0,6.6,2.6,12.9,7.6,17.9l-7.2,7c-0.4,0.4-0.5,0.9-0.3,1.4
	c0.2,0.5,0.6,0.7,1.2,0.7H36c16.6,0,30-12.1,30-27S52.5-0.1,36-0.1z M46.7,37.8H24c-1,0-1.8-0.8-1.8-1.8c0-1,0.8-1.8,1.8-1.8h22.7
	c1,0,1.8,0.8,1.8,1.8C48.5,37,47.7,37.8,46.7,37.8z M22.2,26c0-1,0.8-1.8,1.8-1.8h20.2c1,0,1.8,0.8,1.8,1.8s-0.8,1.8-1.8,1.8H24
	C23,28,22.2,27.1,22.2,26z M49.7,18.1H24c-1,0-1.8-0.8-1.8-1.8s0.8-1.8,1.8-1.8h25.7c1,0,1.8,0.8,1.8,1.8
	C51.5,17.2,50.7,18.1,49.7,18.1z"/>
</svg>
