<?xml version="1.0" encoding="utf-8"?>
<!-- Generator: Adobe Illustrator 22.1.0, SVG Export Plug-In . SVG Version: 6.00 Build 0)  -->
<svg version="1.1" id="图层_1" xmlns="http://www.w3.org/2000/svg" xmlns:xlink="http://www.w3.org/1999/xlink" x="0px" y="0px"
	 viewBox="0 0 68 54" style="enable-background:new 0 0 68 54;" xml:space="preserve">
<style type="text/css">
	.st0{fill:url(#SVGID_1_);}
</style>
<linearGradient id="SVGID_1_" gradientUnits="userSpaceOnUse" x1="34.05" y1="490.2" x2="34.05" y2="536.2605" gradientTransform="matrix(1 0 0 1 0 -486.2)">
	<stop  offset="0" style="stop-color:#BC82F1"/>
	<stop  offset="1" style="stop-color:#FA83E4"/>
</linearGradient>
<path class="st0" d="M24.6,16.3c-5.7,0-10.4,4.7-10.4,10.5c0,2.8,1.1,5.3,2.8,7.1c1.1-2.1,2.8-3.6,5-4.3c4.1-1.3,8.5,0.5,10.4,4.3
	c1.7-1.9,2.8-4.4,2.8-7.1C35,21,30.3,16.3,24.6,16.3z M24.6,28.3c-2.5,0-4.7-2.1-4.7-4.7s2.1-4.7,4.7-4.7s4.7,2.1,4.7,4.7
	S27.1,28.3,24.6,28.3z M56.9,4H11.1C7.7,4,5,5.9,5,9.2V44c0,3.3,2.7,6,6.1,6H57c3.3,0,6.1-2.8,6.1-6.1V9.2C63,5.8,60.3,4,56.9,4z
	 M24.6,39.7c-7.1,0-12.7-5.7-12.7-12.8S17.5,14,24.6,14s12.7,5.7,12.7,12.8S31.6,39.7,24.6,39.7z M55.2,35.8H41
	c-0.7,0-1.2-0.5-1.2-1.2s0.5-1.2,1.2-1.2h14.3c0.7,0,1.2,0.5,1.2,1.2C56.4,35.3,55.9,35.8,55.2,35.8z M55.2,28.5H41
	c-0.7,0-1.2-0.5-1.2-1.2s0.5-1.2,1.2-1.2h14.3c0.7,0,1.2,0.5,1.2,1.2C56.4,28,55.9,28.5,55.2,28.5z M55.2,21.2H41
	c-0.7,0-1.2-0.5-1.2-1.2s0.5-1.2,1.2-1.2h14.3c0.7,0,1.2,0.5,1.2,1.2C56.4,20.7,55.9,21.2,55.2,21.2z"/>
</svg>
