<?xml version="1.0" encoding="utf-8"?>
<!-- Generator: Adobe Illustrator 22.1.0, SVG Export Plug-In . SVG Version: 6.00 Build 0)  -->
<svg version="1.1" id="图层_1" xmlns="http://www.w3.org/2000/svg" xmlns:xlink="http://www.w3.org/1999/xlink" x="0px" y="0px"
	 viewBox="0 0 68 54" style="enable-background:new 0 0 68 54;" xml:space="preserve">
<style type="text/css">
	.st0{fill:url(#SVGID_1_);}
</style>
<linearGradient id="SVGID_1_" gradientUnits="userSpaceOnUse" x1="34" y1="50.3333" x2="34" y2="1.3333">
	<stop  offset="0" style="stop-color:#779AFA"/>
	<stop  offset="1" style="stop-color:#65B4FD"/>
</linearGradient>
<path class="st0" d="M18.3,41.3V50h-0.2c0,0.8-0.7,1.5-1.5,1.5H11c-0.8,0-1.5-0.7-1.5-1.5v-8.7c0-0.8,0.7-1.5,1.5-1.5h5.8
	C17.7,39.8,18.3,40.4,18.3,41.3z M29.8,29.7H24c-0.8,0-1.5,0.7-1.5,1.5V50c0,0.8,0.7,1.5,1.5,1.5h5.7c0.8,0,1.5-0.7,1.5-1.5h0.2
	V31.2C31.3,30.4,30.7,29.7,29.8,29.7z M44,35.4h-5.8c-0.8,0-1.5,0.7-1.5,1.5V50c0,0.8,0.7,1.5,1.5,1.5H44c0.8,0,1.5-0.7,1.5-1.5
	V36.9C45.5,36.1,44.8,35.4,44,35.4z M57,22.5h-5.8c-0.8,0-1.5,0.7-1.5,1.5v26c0,0.8,0.7,1.5,1.5,1.5H57c0.8,0,1.5-0.7,1.5-1.5V24
	C58.5,23.2,57.8,22.5,57,22.5z M44.2,2.5l5.2,5.2L37.7,19.4l-6-6l-4.2-4l-18,18.1v8l18-18.1l10.2,10.2l4-4l10.5-10.6l1.2-1.2l5.2,5
	V2.5H44.2z"/>
</svg>
