<?xml version="1.0" encoding="utf-8"?>
<!-- Generator: Adobe Illustrator 22.1.0, SVG Export Plug-In . SVG Version: 6.00 Build 0)  -->
<svg version="1.1" id="图层_1" xmlns="http://www.w3.org/2000/svg" xmlns:xlink="http://www.w3.org/1999/xlink" x="0px" y="0px"
	 viewBox="0 0 68 54" style="enable-background:new 0 0 68 54;" xml:space="preserve">
<style type="text/css">
	.st0{fill:url(#SVGID_1_);}
</style>
<linearGradient id="SVGID_1_" gradientUnits="userSpaceOnUse" x1="34.0069" y1="527" x2="34.0069" y2="473" gradientTransform="matrix(1 0 0 1 0 -473)">
	<stop  offset="0" style="stop-color:#779AFA"/>
	<stop  offset="1" style="stop-color:#65B4FD"/>
</linearGradient>
<path class="st0" d="M52.3,5.2h-7.6l-1.4-2.8C42.6,0.9,41.1,0,39.4,0H28.8c-1.6,0-3.1,0.9-3.9,2.4l-1.4,2.8h-7.7
	c-2.4,0-4.3,2-4.3,4.4v40c0,2.4,1.9,4.4,4.3,4.4h36.4c2.4,0,4.3-2,4.3-4.4v-40C56.7,7.2,54.7,5.2,52.3,5.2z M26,7.9l1.8-3.5
	c0.3-0.6,0.9-0.9,1.5-0.9h9.6c0.7,0,1.3,0.3,1.5,0.9l1.8,3.5c0.6,1.2-0.3,2.5-1.5,2.5H27.6C26.3,10.5,25.5,9.1,26,7.9z M24.7,21.8
	L24.7,21.8c0.8-0.9,2-0.9,2.8-0.1l5.6,5.6l10.4-10.5c0.8-0.8,2-0.8,2.8,0l0.1,0.1c0.8,0.8,0.8,2,0,2.7L34.5,31.5
	c-0.8,0.8-2,0.8-2.8,0l-0.1-0.1h-0.1c-0.1,0-0.1-0.1-0.2-0.1l-6.7-6.8C23.9,23.7,23.9,22.5,24.7,21.8z M46.1,44.9h-24
	c-0.7,0-1.3-0.6-1.3-1.3s0.6-1.3,1.3-1.3h24c0.7,0,1.3,0.6,1.3,1.3C47.4,44.3,46.8,44.9,46.1,44.9z M46.1,38.7H22.2
	c-0.7,0-1.3-0.6-1.3-1.3s0.6-1.3,1.3-1.3h23.9c0.7,0,1.3,0.6,1.3,1.3C47.4,38.1,46.8,38.7,46.1,38.7z"/>
</svg>
