<?xml version="1.0" encoding="utf-8"?>
<!-- Generator: Adobe Illustrator 22.1.0, SVG Export Plug-In . SVG Version: 6.00 Build 0)  -->
<svg version="1.1" id="图层_1" xmlns="http://www.w3.org/2000/svg" xmlns:xlink="http://www.w3.org/1999/xlink" x="0px" y="0px"
	 viewBox="0 0 68 54" style="enable-background:new 0 0 68 54;" xml:space="preserve">
<style type="text/css">
	.st0{fill:url(#SVGID_1_);}
</style>
<linearGradient id="SVGID_1_" gradientUnits="userSpaceOnUse" x1="34" y1="48" x2="34" y2="2">
	<stop  offset="0" style="stop-color:#BC82F1"/>
	<stop  offset="1" style="stop-color:#FA83E4"/>
</linearGradient>
<path class="st0" d="M13.7,7.8l18.8-6c1-0.3,2.1-0.3,3.2,0l18.8,6c1.6,0.5,2.7,2,2.7,3.6v13.2c0,7.6-3.7,14.8-9.9,19.3l-10.8,7.8
	c-0.7,0.5-1.5,0.7-2.3,0.7c-0.8,0-1.6-0.3-2.3-0.7l-10.8-7.9C14.7,39.4,11,32.2,11,24.6V11.4C11,9.7,12.1,8.3,13.7,7.8z M32.4,23.7
	h-7.2c-1.1,0-2,0.9-2,2c0,1.1,0.9,2,2,2h7.2v7.3c0,0.7,0.4,1.4,1,1.8c0.6,0.4,1.4,0.4,2,0c0.6-0.4,1-1,1-1.8v-7.3h7.2
	c0.7,0,1.4-0.4,1.7-1c0.4-0.6,0.4-1.4,0-2c-0.4-0.6-1-1-1.7-1h-7.2v-7.3c0-0.7-0.4-1.4-1-1.8c-0.6-0.4-1.4-0.4-2,0
	c-0.6,0.4-1,1-1,1.8V23.7z"/>
</svg>
