<?xml version="1.0" encoding="utf-8"?>
<!-- Generator: Adobe Illustrator 22.1.0, SVG Export Plug-In . SVG Version: 6.00 Build 0)  -->
<svg version="1.1" id="图层_1" xmlns="http://www.w3.org/2000/svg" xmlns:xlink="http://www.w3.org/1999/xlink" x="0px" y="0px"
	 viewBox="0 0 68 54" style="enable-background:new 0 0 68 54;" xml:space="preserve">
<style type="text/css">
	.st0{fill:url(#SVGID_1_);}
</style>
<linearGradient id="SVGID_1_" gradientUnits="userSpaceOnUse" x1="34" y1="0.3333" x2="34" y2="53.8286">
	<stop  offset="0" style="stop-color:#BC82F1"/>
	<stop  offset="1" style="stop-color:#FA83E4"/>
</linearGradient>
<path class="st0" d="M34,0.2C19.2,0.2,7.3,12.2,7.3,27c0,14.8,12,26.8,26.7,26.8c14.8,0,26.7-12,26.7-26.8
	C60.7,12.2,48.8,0.2,34,0.2z M41.5,13.2c1.5,1,3.2,2.3,4.8,3.6c-0.4,0.4-0.8,0.7-1.3,1c-0.4,0.3-0.8,0.7-1.2,1
	c-1.5-1.4-2.9-2.6-4.3-3.6L41.5,13.2z M24.9,21.1v20.1l-3.1-0.1V25.7l-1.1,1.5c-0.7,1-1.4,1.9-2,2.7c0-0.3-0.1-0.6-0.1-0.9
	c-0.1-1.2-0.2-2.3-0.5-3.5c2.6-3.4,5.4-7.5,7.1-12.3l3,0.5c-0.7,1.9-2,4.5-2.9,6.4L24.9,21.1z M46.6,39.5c-0.6,1.1-1.7,1.7-3.1,1.7
	c-4.8,0-7.9-5.4-9.1-15.6L34.3,25l-5,0.8l-0.9-3l5.8-0.8l0-0.5c-0.2-2.5-0.4-5.3-0.5-8.2h3.3c0,2.8,0.1,5.4,0.4,7.9l0,0.6l9.8-1.2
	l0.7,3l-10,1.2l0.1,0.6c0.8,5.3,1.5,7.5,2.5,9.2c1.1,2.1,2,3,2.8,3c0.3,0,0.6-0.1,1-0.5c0.1-0.2,0.4-0.6,0.7-2.1
	c0.1-0.4,0.2-0.8,0.3-1.2c0.1-0.4,0.2-0.8,0.3-1.3c0.9,0.5,2,1,3,1.5C48.1,36.1,47.2,38.2,46.6,39.5z"/>
</svg>
